<mxfile host="app.diagrams.net" modified="2024-01-27T16:41:07.072Z" agent="Mozilla/5.0 (X11; Ubuntu; Linux x86_64; rv:122.0) Gecko/20100101 Firefox/122.0" version="23.0.2" etag="GlCIzIp31tBc6WKdYJhx" type="github">
  <diagram name="Page-1" id="I7xc5j70TLK0VO-wYfFK">
    <mxGraphModel>
      <root>
        <mxCell id="0" />
        <mxCell id="1" parent="0" />
      </root>
    </mxGraphModel>
  </diagram>
</mxfile>
